<?xml version="1.0" encoding="utf-8" standalone="no"?>
<!DOCTYPE svg PUBLIC "-//W3C//DTD SVG 1.1//EN"
  "http://www.w3.org/Graphics/SVG/1.1/DTD/svg11.dtd">
<svg xmlns:xlink="http://www.w3.org/1999/xlink" width="400.06375pt" height="296.46825pt" viewBox="0 0 400.06375 296.46825" xmlns="http://www.w3.org/2000/svg" version="1.1">
 <metadata>
  <rdf:RDF xmlns:dc="http://purl.org/dc/elements/1.1/" xmlns:cc="http://creativecommons.org/ns#" xmlns:rdf="http://www.w3.org/1999/02/22-rdf-syntax-ns#">
   <cc:Work>
    <dc:type rdf:resource="http://purl.org/dc/dcmitype/StillImage"/>
    <dc:date>2025-08-02T13:01:59.949700</dc:date>
    <dc:format>image/svg+xml</dc:format>
    <dc:creator>
     <cc:Agent>
      <dc:title>Matplotlib v3.9.2, https://matplotlib.org/</dc:title>
     </cc:Agent>
    </dc:creator>
   </cc:Work>
  </rdf:RDF>
 </metadata>
 <defs>
  <style type="text/css">*{stroke-linejoin: round; stroke-linecap: butt}</style>
 </defs>
 <g id="figure_1">
  <g id="patch_1">
   <path d="M 0 296.46825 
L 400.06375 296.46825 
L 400.06375 0 
L 0 0 
z
" style="fill: #ffffff"/>
  </g>
  <g id="axes_1">
   <g id="patch_2">
    <path d="M 42.94375 266.112 
L 400.06375 266.112 
L 400.06375 -0 
L 42.94375 -0 
z
" style="fill: #ffffff"/>
   </g>
   <g id="patch_3">
    <path d="M 80.543154 266.112 
L 96.205443 266.112 
L 96.205443 264.124235 
L 80.543154 264.124235 
z
" clip-path="url(#pf660968fab)" style="fill: #808080; fill-opacity: 0.75; stroke: #ffffff; stroke-linejoin: miter"/>
   </g>
   <g id="patch_4">
    <path d="M 96.205443 266.112 
L 111.867731 266.112 
L 111.867731 266.112 
L 96.205443 266.112 
z
" clip-path="url(#pf660968fab)" style="fill: #808080; fill-opacity: 0.75; stroke: #ffffff; stroke-linejoin: miter"/>
   </g>
   <g id="patch_5">
    <path d="M 111.867731 266.112 
L 127.530019 266.112 
L 127.530019 263.130353 
L 111.867731 263.130353 
z
" clip-path="url(#pf660968fab)" style="fill: #808080; fill-opacity: 0.75; stroke: #ffffff; stroke-linejoin: miter"/>
   </g>
   <g id="patch_6">
    <path d="M 127.530019 266.112 
L 143.192308 266.112 
L 143.192308 257.167059 
L 127.530019 257.167059 
z
" clip-path="url(#pf660968fab)" style="fill: #808080; fill-opacity: 0.75; stroke: #ffffff; stroke-linejoin: miter"/>
   </g>
   <g id="patch_7">
    <path d="M 143.192308 266.112 
L 158.854596 266.112 
L 158.854596 191.570824 
L 143.192308 191.570824 
z
" clip-path="url(#pf660968fab)" style="fill: #808080; fill-opacity: 0.75; stroke: #ffffff; stroke-linejoin: miter"/>
   </g>
   <g id="patch_8">
    <path d="M 158.854596 266.112 
L 174.516885 266.112 
L 174.516885 184.613647 
L 158.854596 184.613647 
z
" clip-path="url(#pf660968fab)" style="fill: #808080; fill-opacity: 0.75; stroke: #ffffff; stroke-linejoin: miter"/>
   </g>
   <g id="patch_9">
    <path d="M 174.516885 266.112 
L 190.179173 266.112 
L 190.179173 245.240471 
L 174.516885 245.240471 
z
" clip-path="url(#pf660968fab)" style="fill: #808080; fill-opacity: 0.75; stroke: #ffffff; stroke-linejoin: miter"/>
   </g>
   <g id="patch_10">
    <path d="M 190.179173 266.112 
L 205.841462 266.112 
L 205.841462 137.901176 
L 190.179173 137.901176 
z
" clip-path="url(#pf660968fab)" style="fill: #808080; fill-opacity: 0.75; stroke: #ffffff; stroke-linejoin: miter"/>
   </g>
   <g id="patch_11">
    <path d="M 205.841462 266.112 
L 221.50375 266.112 
L 221.50375 86.219294 
L 205.841462 86.219294 
z
" clip-path="url(#pf660968fab)" style="fill: #808080; fill-opacity: 0.75; stroke: #ffffff; stroke-linejoin: miter"/>
   </g>
   <g id="patch_12">
    <path d="M 221.50375 266.112 
L 237.166038 266.112 
L 237.166038 12.672 
L 221.50375 12.672 
z
" clip-path="url(#pf660968fab)" style="fill: #808080; fill-opacity: 0.75; stroke: #ffffff; stroke-linejoin: miter"/>
   </g>
   <g id="patch_13">
    <path d="M 237.166038 266.112 
L 252.828327 266.112 
L 252.828327 145.852235 
L 237.166038 145.852235 
z
" clip-path="url(#pf660968fab)" style="fill: #808080; fill-opacity: 0.75; stroke: #ffffff; stroke-linejoin: miter"/>
   </g>
   <g id="patch_14">
    <path d="M 252.828327 266.112 
L 268.490615 266.112 
L 268.490615 226.356706 
L 252.828327 226.356706 
z
" clip-path="url(#pf660968fab)" style="fill: #808080; fill-opacity: 0.75; stroke: #ffffff; stroke-linejoin: miter"/>
   </g>
   <g id="patch_15">
    <path d="M 268.490615 266.112 
L 284.152904 266.112 
L 284.152904 241.264941 
L 268.490615 241.264941 
z
" clip-path="url(#pf660968fab)" style="fill: #808080; fill-opacity: 0.75; stroke: #ffffff; stroke-linejoin: miter"/>
   </g>
   <g id="patch_16">
    <path d="M 284.152904 266.112 
L 299.815192 266.112 
L 299.815192 259.154824 
L 284.152904 259.154824 
z
" clip-path="url(#pf660968fab)" style="fill: #808080; fill-opacity: 0.75; stroke: #ffffff; stroke-linejoin: miter"/>
   </g>
   <g id="patch_17">
    <path d="M 299.815192 266.112 
L 315.477481 266.112 
L 315.477481 221.387294 
L 299.815192 221.387294 
z
" clip-path="url(#pf660968fab)" style="fill: #808080; fill-opacity: 0.75; stroke: #ffffff; stroke-linejoin: miter"/>
   </g>
   <g id="patch_18">
    <path d="M 315.477481 266.112 
L 331.139769 266.112 
L 331.139769 262.136471 
L 315.477481 262.136471 
z
" clip-path="url(#pf660968fab)" style="fill: #808080; fill-opacity: 0.75; stroke: #ffffff; stroke-linejoin: miter"/>
   </g>
   <g id="patch_19">
    <path d="M 331.139769 266.112 
L 346.802057 266.112 
L 346.802057 266.112 
L 331.139769 266.112 
z
" clip-path="url(#pf660968fab)" style="fill: #808080; fill-opacity: 0.75; stroke: #ffffff; stroke-linejoin: miter"/>
   </g>
   <g id="patch_20">
    <path d="M 346.802057 266.112 
L 362.464346 266.112 
L 362.464346 265.118118 
L 346.802057 265.118118 
z
" clip-path="url(#pf660968fab)" style="fill: #808080; fill-opacity: 0.75; stroke: #ffffff; stroke-linejoin: miter"/>
   </g>
   <g id="matplotlib.axis_1">
    <g id="xtick_1">
     <g id="line2d_1">
      <defs>
       <path id="m9441670774" d="M 0 0 
L 0 3.5 
" style="stroke: #000000; stroke-width: 0.8"/>
      </defs>
      <g>
       <use xlink:href="#m9441670774" x="72.71201" y="266.112" style="stroke: #000000; stroke-width: 0.8"/>
      </g>
     </g>
     <g id="text_1">
      <text style="font: 10px 'DejaVu Sans', 'Bitstream Vera Sans', 'Computer Modern Sans Serif', 'Lucida Grande', 'Verdana', 'Geneva', 'Lucid', 'Arial', 'Helvetica', 'Avant Garde', sans-serif; text-anchor: middle" x="72.71201" y="280.710437" transform="rotate(-0 72.71201 280.710437)">1881</text>
     </g>
    </g>
    <g id="xtick_2">
     <g id="line2d_2">
      <g>
       <use xlink:href="#m9441670774" x="151.023452" y="266.112" style="stroke: #000000; stroke-width: 0.8"/>
      </g>
     </g>
     <g id="text_2">
      <text style="font: 10px 'DejaVu Sans', 'Bitstream Vera Sans', 'Computer Modern Sans Serif', 'Lucida Grande', 'Verdana', 'Geneva', 'Lucid', 'Arial', 'Helvetica', 'Avant Garde', sans-serif; text-anchor: middle" x="151.023452" y="280.710437" transform="rotate(-0 151.023452 280.710437)">1886</text>
     </g>
    </g>
    <g id="xtick_3">
     <g id="line2d_3">
      <g>
       <use xlink:href="#m9441670774" x="229.334894" y="266.112" style="stroke: #000000; stroke-width: 0.8"/>
      </g>
     </g>
     <g id="text_3">
      <text style="font: 10px 'DejaVu Sans', 'Bitstream Vera Sans', 'Computer Modern Sans Serif', 'Lucida Grande', 'Verdana', 'Geneva', 'Lucid', 'Arial', 'Helvetica', 'Avant Garde', sans-serif; text-anchor: middle" x="229.334894" y="280.710437" transform="rotate(-0 229.334894 280.710437)">1891</text>
     </g>
    </g>
    <g id="xtick_4">
     <g id="line2d_4">
      <g>
       <use xlink:href="#m9441670774" x="307.646336" y="266.112" style="stroke: #000000; stroke-width: 0.8"/>
      </g>
     </g>
     <g id="text_4">
      <text style="font: 10px 'DejaVu Sans', 'Bitstream Vera Sans', 'Computer Modern Sans Serif', 'Lucida Grande', 'Verdana', 'Geneva', 'Lucid', 'Arial', 'Helvetica', 'Avant Garde', sans-serif; text-anchor: middle" x="307.646336" y="280.710437" transform="rotate(-0 307.646336 280.710437)">1896</text>
     </g>
    </g>
    <g id="xtick_5">
     <g id="line2d_5">
      <g>
       <use xlink:href="#m9441670774" x="385.957779" y="266.112" style="stroke: #000000; stroke-width: 0.8"/>
      </g>
     </g>
     <g id="text_5">
      <text style="font: 10px 'DejaVu Sans', 'Bitstream Vera Sans', 'Computer Modern Sans Serif', 'Lucida Grande', 'Verdana', 'Geneva', 'Lucid', 'Arial', 'Helvetica', 'Avant Garde', sans-serif; text-anchor: middle" x="385.957779" y="280.710437" transform="rotate(-0 385.957779 280.710437)">1901</text>
     </g>
    </g>
    <g id="text_6">
     <text style="font: 10px 'DejaVu Sans', 'Bitstream Vera Sans', 'Computer Modern Sans Serif', 'Lucida Grande', 'Verdana', 'Geneva', 'Lucid', 'Arial', 'Helvetica', 'Avant Garde', sans-serif; text-anchor: middle" x="221.50375" y="294.388562" transform="rotate(-0 221.50375 294.388562)">$$k$$</text>
    </g>
   </g>
   <g id="matplotlib.axis_2">
    <g id="ytick_1">
     <g id="line2d_6">
      <defs>
       <path id="mdb15a15d3e" d="M 0 0 
L -3.5 0 
" style="stroke: #000000; stroke-width: 0.8"/>
      </defs>
      <g>
       <use xlink:href="#mdb15a15d3e" x="42.94375" y="266.112" style="stroke: #000000; stroke-width: 0.8"/>
      </g>
     </g>
     <g id="text_7">
      <text style="font: 10px 'DejaVu Sans', 'Bitstream Vera Sans', 'Computer Modern Sans Serif', 'Lucida Grande', 'Verdana', 'Geneva', 'Lucid', 'Arial', 'Helvetica', 'Avant Garde', sans-serif; text-anchor: end" x="35.94375" y="269.911219" transform="rotate(-0 35.94375 269.911219)">0.00</text>
     </g>
    </g>
    <g id="ytick_2">
     <g id="line2d_7">
      <g>
       <use xlink:href="#mdb15a15d3e" x="42.94375" y="216.417882" style="stroke: #000000; stroke-width: 0.8"/>
      </g>
     </g>
     <g id="text_8">
      <text style="font: 10px 'DejaVu Sans', 'Bitstream Vera Sans', 'Computer Modern Sans Serif', 'Lucida Grande', 'Verdana', 'Geneva', 'Lucid', 'Arial', 'Helvetica', 'Avant Garde', sans-serif; text-anchor: end" x="35.94375" y="220.217101" transform="rotate(-0 35.94375 220.217101)">0.05</text>
     </g>
    </g>
    <g id="ytick_3">
     <g id="line2d_8">
      <g>
       <use xlink:href="#mdb15a15d3e" x="42.94375" y="166.723765" style="stroke: #000000; stroke-width: 0.8"/>
      </g>
     </g>
     <g id="text_9">
      <text style="font: 10px 'DejaVu Sans', 'Bitstream Vera Sans', 'Computer Modern Sans Serif', 'Lucida Grande', 'Verdana', 'Geneva', 'Lucid', 'Arial', 'Helvetica', 'Avant Garde', sans-serif; text-anchor: end" x="35.94375" y="170.522983" transform="rotate(-0 35.94375 170.522983)">0.10</text>
     </g>
    </g>
    <g id="ytick_4">
     <g id="line2d_9">
      <g>
       <use xlink:href="#mdb15a15d3e" x="42.94375" y="117.029647" style="stroke: #000000; stroke-width: 0.8"/>
      </g>
     </g>
     <g id="text_10">
      <text style="font: 10px 'DejaVu Sans', 'Bitstream Vera Sans', 'Computer Modern Sans Serif', 'Lucida Grande', 'Verdana', 'Geneva', 'Lucid', 'Arial', 'Helvetica', 'Avant Garde', sans-serif; text-anchor: end" x="35.94375" y="120.828866" transform="rotate(-0 35.94375 120.828866)">0.15</text>
     </g>
    </g>
    <g id="ytick_5">
     <g id="line2d_10">
      <g>
       <use xlink:href="#mdb15a15d3e" x="42.94375" y="67.335529" style="stroke: #000000; stroke-width: 0.8"/>
      </g>
     </g>
     <g id="text_11">
      <text style="font: 10px 'DejaVu Sans', 'Bitstream Vera Sans', 'Computer Modern Sans Serif', 'Lucida Grande', 'Verdana', 'Geneva', 'Lucid', 'Arial', 'Helvetica', 'Avant Garde', sans-serif; text-anchor: end" x="35.94375" y="71.134748" transform="rotate(-0 35.94375 71.134748)">0.20</text>
     </g>
    </g>
    <g id="ytick_6">
     <g id="line2d_11">
      <g>
       <use xlink:href="#mdb15a15d3e" x="42.94375" y="17.641412" style="stroke: #000000; stroke-width: 0.8"/>
      </g>
     </g>
     <g id="text_12">
      <text style="font: 10px 'DejaVu Sans', 'Bitstream Vera Sans', 'Computer Modern Sans Serif', 'Lucida Grande', 'Verdana', 'Geneva', 'Lucid', 'Arial', 'Helvetica', 'Avant Garde', sans-serif; text-anchor: end" x="35.94375" y="21.440631" transform="rotate(-0 35.94375 21.440631)">0.25</text>
     </g>
    </g>
    <g id="text_13">
     <text style="font: 10px 'DejaVu Sans', 'Bitstream Vera Sans', 'Computer Modern Sans Serif', 'Lucida Grande', 'Verdana', 'Geneva', 'Lucid', 'Arial', 'Helvetica', 'Avant Garde', sans-serif; text-anchor: middle" x="7.598438" y="133.056" transform="rotate(-90 7.598438 133.056)">$$\pi(k\mid y)$$</text>
    </g>
   </g>
   <g id="line2d_12">
    <path d="M 59.176477 266.097823 
L 68.965057 265.937295 
L 75.490776 265.580573 
L 85.279355 264.895079 
L 90.173645 264.838143 
L 96.699364 265.107371 
L 101.593654 265.251311 
L 104.856514 265.166553 
L 108.119374 264.888655 
L 111.382233 264.41722 
L 114.645093 263.765417 
L 117.907953 262.920123 
L 121.170813 261.796978 
L 122.802242 261.075762 
L 124.433672 260.202389 
L 126.065102 259.131667 
L 127.696532 257.81005 
L 129.327962 256.177224 
L 130.959392 254.169482 
L 132.590822 251.72538 
L 134.222252 248.793816 
L 135.853681 245.34401 
L 137.485111 241.376012 
L 139.116541 236.929621 
L 142.379401 226.982291 
L 145.642261 216.633984 
L 147.273691 211.75082 
L 148.90512 207.276681 
L 150.53655 203.328335 
L 152.16798 199.975609 
L 153.79941 197.243622 
L 155.43084 195.124569 
L 157.06227 193.595522 
L 158.6937 192.636795 
L 160.32513 192.245072 
L 161.95656 192.436901 
L 163.587989 193.240884 
L 165.219419 194.680224 
L 166.850849 196.75009 
L 168.482279 199.395771 
L 170.113709 202.497389 
L 173.376569 209.246956 
L 175.007999 212.345876 
L 176.639428 214.846447 
L 178.270858 216.443655 
L 179.902288 216.872031 
L 181.533718 215.931344 
L 183.165148 213.506654 
L 184.796578 209.580969 
L 186.428008 204.238948 
L 188.059438 197.660287 
L 189.690867 190.102068 
L 192.953727 173.286727 
L 196.216587 156.186929 
L 199.479447 140.353721 
L 202.742306 126.059921 
L 207.636596 106.286817 
L 212.530886 87.308792 
L 217.425175 69.263458 
L 219.056605 63.674974 
L 220.688035 58.518357 
L 222.319465 54.033655 
L 223.950895 50.529245 
L 225.582325 48.349191 
L 227.213755 47.821689 
L 228.845184 49.19994 
L 230.476614 52.61053 
L 232.108044 58.023328 
L 233.739474 65.251399 
L 235.370904 73.981093 
L 237.002334 83.824224 
L 240.265194 105.281706 
L 245.159483 137.637474 
L 248.422343 157.723619 
L 251.685203 176.10465 
L 253.316633 184.509609 
L 254.948062 192.300414 
L 256.579492 199.419826 
L 258.210922 205.832932 
L 259.842352 211.533424 
L 261.473782 216.543792 
L 263.105212 220.910644 
L 264.736642 224.697534 
L 266.368072 227.977739 
L 267.999501 230.828508 
L 269.630931 233.327072 
L 271.262361 235.547721 
L 274.525221 239.419433 
L 277.788081 242.849015 
L 281.05094 245.949645 
L 282.68237 247.312338 
L 284.3138 248.475185 
L 285.94523 249.367183 
L 287.57666 249.916005 
L 289.20809 250.058052 
L 290.83952 249.748478 
L 292.47095 248.970327 
L 294.10238 247.741948 
L 295.733809 246.121718 
L 298.996669 242.140695 
L 300.628099 240.081774 
L 302.259529 238.211725 
L 303.890959 236.706413 
L 305.522389 235.718659 
L 307.153819 235.360222 
L 308.785248 235.688345 
L 310.416678 236.699375 
L 312.048108 238.330737 
L 313.679538 240.470869 
L 315.310968 242.975242 
L 321.836687 253.626841 
L 323.468117 255.872383 
L 325.099547 257.830995 
L 326.730977 259.49578 
L 328.362407 260.880365 
L 329.993837 262.011056 
L 331.625267 262.919971 
L 333.256697 263.639936 
L 334.888126 264.201347 
L 338.150986 264.950705 
L 341.413846 265.336122 
L 344.676706 265.484051 
L 351.202425 265.469075 
L 357.728145 265.500425 
L 369.148154 265.902119 
L 378.936733 266.083763 
L 383.831023 266.104912 
L 383.831023 266.104912 
" clip-path="url(#pf660968fab)" style="fill: none; stroke: #000000; stroke-width: 1.5; stroke-linecap: square"/>
   </g>
   <g id="patch_21">
    <path d="M 42.94375 266.112 
L 42.94375 -0 
" style="fill: none; stroke: #000000; stroke-width: 0.8; stroke-linejoin: miter; stroke-linecap: square"/>
   </g>
   <g id="patch_22">
    <path d="M 400.06375 266.112 
L 400.06375 -0 
" style="fill: none; stroke: #000000; stroke-width: 0.8; stroke-linejoin: miter; stroke-linecap: square"/>
   </g>
   <g id="patch_23">
    <path d="M 42.94375 266.112 
L 400.06375 266.112 
" style="fill: none; stroke: #000000; stroke-width: 0.8; stroke-linejoin: miter; stroke-linecap: square"/>
   </g>
   <g id="patch_24">
    <path d="M 42.94375 -0 
L 400.06375 -0 
" style="fill: none; stroke: #000000; stroke-width: 0.8; stroke-linejoin: miter; stroke-linecap: square"/>
   </g>
  </g>
 </g>
 <defs>
  <clipPath id="pf660968fab">
   <rect x="42.94375" y="-0" width="357.12" height="266.112"/>
  </clipPath>
 </defs>
</svg>
