<?xml version="1.0" encoding="UTF-8"?>
<svg width="500" height="352.3" version="1.1" viewBox="0 0 375 264.22" xmlns="http://www.w3.org/2000/svg" xmlns:cc="http://creativecommons.org/ns#" xmlns:dc="http://purl.org/dc/elements/1.1/" xmlns:rdf="http://www.w3.org/1999/02/22-rdf-syntax-ns#" xmlns:xlink="http://www.w3.org/1999/xlink">
 <metadata>
  <rdf:RDF>
   <cc:Work>
    <dc:type rdf:resource="http://purl.org/dc/dcmitype/StillImage"/>
    <dc:date>2025-08-02T19:46:10.152688</dc:date>
    <dc:format>image/svg+xml</dc:format>
    <dc:creator>
     <cc:Agent>
      <dc:title>Matplotlib v3.9.2, https://matplotlib.org/</dc:title>
     </cc:Agent>
    </dc:creator>
   </cc:Work>
  </rdf:RDF>
 </metadata>
 <defs>
  <style type="text/css">*{stroke-linejoin: round; stroke-linecap: butt}</style>
 </defs>
 <g transform="translate(10.039)">
  <path d="m0 264.22h354.52v-264.22h-354.52z" fill="#fff"/>
  <path d="m19.722 249.48h334.8v-249.48h-334.8z" fill="#fff"/>
  <path d="m63.711 249.48h10.731v-4.4411h-10.731z" clip-path="url(#p097c5a41b7)" fill="#1f77b4" fill-opacity=".75" stroke="#fff"/>
  <path d="m74.443 249.48h10.731v-17.764h-10.731z" clip-path="url(#p097c5a41b7)" fill="#1f77b4" fill-opacity=".75" stroke="#fff"/>
  <path d="m85.174 249.48h10.731v-15.544h-10.731z" clip-path="url(#p097c5a41b7)" fill="#1f77b4" fill-opacity=".75" stroke="#fff"/>
  <path d="m95.905 249.48h10.731v-48.852h-10.731z" clip-path="url(#p097c5a41b7)" fill="#1f77b4" fill-opacity=".75" stroke="#fff"/>
  <path d="m106.64 249.48h10.731v-66.617h-10.731z" clip-path="url(#p097c5a41b7)" fill="#1f77b4" fill-opacity=".75" stroke="#fff"/>
  <path d="m117.37 249.48h10.731v-113.25h-10.731z" clip-path="url(#p097c5a41b7)" fill="#1f77b4" fill-opacity=".75" stroke="#fff"/>
  <path d="m128.1 249.48h10.731v-197.63h-10.731z" clip-path="url(#p097c5a41b7)" fill="#1f77b4" fill-opacity=".75" stroke="#fff"/>
  <path d="m138.83 249.48h10.731v-206.51h-10.731z" clip-path="url(#p097c5a41b7)" fill="#1f77b4" fill-opacity=".75" stroke="#fff"/>
  <path d="m149.56 249.48h10.731v-237.6h-10.731z" clip-path="url(#p097c5a41b7)" fill="#1f77b4" fill-opacity=".75" stroke="#fff"/>
  <path d="m160.29 249.48h10.731v-208.73h-10.731z" clip-path="url(#p097c5a41b7)" fill="#1f77b4" fill-opacity=".75" stroke="#fff"/>
  <path d="m171.03 249.48h10.731v-230.94h-10.731z" clip-path="url(#p097c5a41b7)" fill="#1f77b4" fill-opacity=".75" stroke="#fff"/>
  <path d="m181.76 249.48h10.731v-222.06h-10.731z" clip-path="url(#p097c5a41b7)" fill="#1f77b4" fill-opacity=".75" stroke="#fff"/>
  <path d="m192.49 249.48h10.731v-206.51h-10.731z" clip-path="url(#p097c5a41b7)" fill="#1f77b4" fill-opacity=".75" stroke="#fff"/>
  <path d="m203.22 249.48h10.731v-133.23h-10.731z" clip-path="url(#p097c5a41b7)" fill="#1f77b4" fill-opacity=".75" stroke="#fff"/>
  <path d="m213.95 249.48h10.731v-111.03h-10.731z" clip-path="url(#p097c5a41b7)" fill="#1f77b4" fill-opacity=".75" stroke="#fff"/>
  <path d="m224.68 249.48h10.731v-99.925h-10.731z" clip-path="url(#p097c5a41b7)" fill="#1f77b4" fill-opacity=".75" stroke="#fff"/>
  <path d="m235.41 249.48h10.731v-37.75h-10.731z" clip-path="url(#p097c5a41b7)" fill="#1f77b4" fill-opacity=".75" stroke="#fff"/>
  <path d="m246.15 249.48h10.731v-28.867h-10.731z" clip-path="url(#p097c5a41b7)" fill="#1f77b4" fill-opacity=".75" stroke="#fff"/>
  <path d="m256.88 249.48h10.731v-19.985h-10.731z" clip-path="url(#p097c5a41b7)" fill="#1f77b4" fill-opacity=".75" stroke="#fff"/>
  <path d="m267.61 249.48h10.731v-8.8822h-10.731z" clip-path="url(#p097c5a41b7)" fill="#1f77b4" fill-opacity=".75" stroke="#fff"/>
  <path d="m278.34 249.48h10.731z" clip-path="url(#p097c5a41b7)" fill="#1f77b4" fill-opacity=".75" stroke="#fff"/>
  <path d="m289.07 249.48h10.731v-2.2206h-10.731z" clip-path="url(#p097c5a41b7)" fill="#1f77b4" fill-opacity=".75" stroke="#fff"/>
  <path d="m299.8 249.48h10.731v-2.2206h-10.731z" clip-path="url(#p097c5a41b7)" fill="#1f77b4" fill-opacity=".75" stroke="#fff"/>
  <defs>
   <path id="m667c20b884" d="m0 0v3.5" stroke="#000" stroke-width=".8"/>
  </defs>
  <use x="32.281517" y="249.48" width="100%" height="100%" stroke="#000000" stroke-width=".8" xlink:href="#m667c20b884"/>
  <!-- 2.0 -->
  <g transform="matrix(.08 0 0 -.08 25.92 262.56)">
   <defs>
    <path id="DejaVuSans-32" transform="scale(.015625)" d="m1228 531h2203v-531h-2962v531q359 372 979 998 621 627 780 809 303 340 423 576 121 236 121 464 0 372-261 606-261 235-680 235-297 0-627-103-329-103-704-313v638q381 153 712 231 332 78 607 78 725 0 1156-363 431-362 431-968 0-288-108-546-107-257-392-607-78-91-497-524-418-433-1181-1211z"/>
    <path id="DejaVuSans-2e" transform="scale(.015625)" d="m684 794h660v-794h-660z"/>
    <path id="DejaVuSans-30" transform="scale(.015625)" d="m2034 4250q-487 0-733-480-245-479-245-1442 0-959 245-1439 246-480 733-480 491 0 736 480 246 480 246 1439 0 963-246 1442-245 480-736 480zm0 500q785 0 1199-621 414-620 414-1801 0-1178-414-1799-414-620-1199-620-784 0-1198 620-414 621-414 1799 0 1181 414 1801 414 621 1198 621z"/>
   </defs>
   <use width="100%" height="100%" xlink:href="#DejaVuSans-32"/>
   <use x="63.623047" width="100%" height="100%" xlink:href="#DejaVuSans-2e"/>
   <use x="95.410156" width="100%" height="100%" xlink:href="#DejaVuSans-30"/>
  </g>
  <use x="98.818619" y="249.48" width="100%" height="100%" stroke="#000000" stroke-width=".8" xlink:href="#m667c20b884"/>
  <!-- 2.5 -->
  <g transform="matrix(.08 0 0 -.08 92.457 262.56)">
   <defs>
    <path id="DejaVuSans-35" transform="scale(.015625)" d="m691 4666h2478v-532h-1900v-1143q137 47 274 70 138 23 276 23 781 0 1237-428 457-428 457-1159 0-753-469-1171-469-417-1322-417-294 0-599 50-304 50-629 150v635q281-153 581-228t634-75q541 0 856 284 316 284 316 772 0 487-316 771-315 285-856 285-253 0-505-56-251-56-513-175z"/>
   </defs>
   <use width="100%" height="100%" xlink:href="#DejaVuSans-32"/>
   <use x="63.623047" width="100%" height="100%" xlink:href="#DejaVuSans-2e"/>
   <use x="95.410156" width="100%" height="100%" xlink:href="#DejaVuSans-35"/>
  </g>
  <use x="165.35571" y="249.48" width="100%" height="100%" stroke="#000000" stroke-width=".8" xlink:href="#m667c20b884"/>
  <!-- 3.0 -->
  <g transform="matrix(.08 0 0 -.08 158.99 262.56)">
   <defs>
    <path id="DejaVuSans-33" transform="scale(.015625)" d="m2597 2516q453-97 707-404 255-306 255-756 0-690-475-1069-475-378-1350-378-293 0-604 58t-642 174v609q262-153 574-231 313-78 654-78 593 0 904 234t311 681q0 413-289 645-289 233-804 233h-544v519h569q465 0 712 186t247 536q0 359-255 551-254 193-729 193-260 0-557-57-297-56-653-174v562q360 100 674 150t592 50q719 0 1137-327 419-326 419-882 0-388-222-655t-631-370z"/>
   </defs>
   <use width="100%" height="100%" xlink:href="#DejaVuSans-33"/>
   <use x="63.623047" width="100%" height="100%" xlink:href="#DejaVuSans-2e"/>
   <use x="95.410156" width="100%" height="100%" xlink:href="#DejaVuSans-30"/>
  </g>
  <use x="231.89281" y="249.48" width="100%" height="100%" stroke="#000000" stroke-width=".8" xlink:href="#m667c20b884"/>
  <!-- 3.5 -->
  <g transform="matrix(.08 0 0 -.08 225.53 262.56)">
   <use width="100%" height="100%" xlink:href="#DejaVuSans-33"/>
   <use x="63.623047" width="100%" height="100%" xlink:href="#DejaVuSans-2e"/>
   <use x="95.410156" width="100%" height="100%" xlink:href="#DejaVuSans-35"/>
  </g>
  <use x="298.4299" y="249.48" width="100%" height="100%" stroke="#000000" stroke-width=".8" xlink:href="#m667c20b884"/>
  <!-- 4.0 -->
  <g transform="matrix(.08 0 0 -.08 292.07 262.56)">
   <defs>
    <path id="DejaVuSans-34" transform="scale(.015625)" d="m2419 4116-1594-2491h1594zm-166 550h794v-3041h666v-525h-666v-1100h-628v1100h-2106v609z"/>
   </defs>
   <use width="100%" height="100%" xlink:href="#DejaVuSans-34"/>
   <use x="63.623047" width="100%" height="100%" xlink:href="#DejaVuSans-2e"/>
   <use x="95.410156" width="100%" height="100%" xlink:href="#DejaVuSans-30"/>
  </g>
  <defs>
   <path id="m5171c42360" d="m0 0h-3.5" stroke="#000" stroke-width=".8"/>
  </defs>
  <use x="19.7225" y="249.48" width="100%" height="100%" stroke="#000000" stroke-width=".8" xlink:href="#m5171c42360"/>
  <!-- 0.0 -->
  <g transform="matrix(.08 0 0 -.08 0 252.52)">
   <use width="100%" height="100%" xlink:href="#DejaVuSans-30"/>
   <use x="63.623047" width="100%" height="100%" xlink:href="#DejaVuSans-2e"/>
   <use x="95.410156" width="100%" height="100%" xlink:href="#DejaVuSans-30"/>
  </g>
  <use x="19.7225" y="213.66573" width="100%" height="100%" stroke="#000000" stroke-width=".8" xlink:href="#m5171c42360"/>
  <!-- 0.2 -->
  <g transform="matrix(.08 0 0 -.08 0 216.71)">
   <use width="100%" height="100%" xlink:href="#DejaVuSans-30"/>
   <use x="63.623047" width="100%" height="100%" xlink:href="#DejaVuSans-2e"/>
   <use x="95.410156" width="100%" height="100%" xlink:href="#DejaVuSans-32"/>
  </g>
  <use x="19.7225" y="177.85144" width="100%" height="100%" stroke="#000000" stroke-width=".8" xlink:href="#m5171c42360"/>
  <!-- 0.4 -->
  <g transform="matrix(.08 0 0 -.08 0 180.89)">
   <use width="100%" height="100%" xlink:href="#DejaVuSans-30"/>
   <use x="63.623047" width="100%" height="100%" xlink:href="#DejaVuSans-2e"/>
   <use x="95.410156" width="100%" height="100%" xlink:href="#DejaVuSans-34"/>
  </g>
  <use x="19.7225" y="142.03717" width="100%" height="100%" stroke="#000000" stroke-width=".8" xlink:href="#m5171c42360"/>
  <!-- 0.6 -->
  <g transform="matrix(.08 0 0 -.08 0 145.08)">
   <defs>
    <path id="DejaVuSans-36" transform="scale(.015625)" d="m2113 2584q-425 0-674-291-248-290-248-796 0-503 248-796 249-292 674-292t673 292q248 293 248 796 0 506-248 796-248 291-673 291zm1253 1979v-575q-238 112-480 171-242 60-480 60-625 0-955-422-329-422-376-1275 184 272 462 417 279 145 613 145 703 0 1111-427 408-426 408-1160 0-719-425-1154-425-434-1131-434-810 0-1238 620-428 621-428 1799 0 1106 525 1764t1409 658q238 0 480-47t505-140z"/>
   </defs>
   <use width="100%" height="100%" xlink:href="#DejaVuSans-30"/>
   <use x="63.623047" width="100%" height="100%" xlink:href="#DejaVuSans-2e"/>
   <use x="95.410156" width="100%" height="100%" xlink:href="#DejaVuSans-36"/>
  </g>
  <use x="19.7225" y="106.22289" width="100%" height="100%" stroke="#000000" stroke-width=".8" xlink:href="#m5171c42360"/>
  <!-- 0.8 -->
  <g transform="matrix(.08 0 0 -.08 0 109.26)">
   <defs>
    <path id="DejaVuSans-38" transform="scale(.015625)" d="m2034 2216q-450 0-708-241-257-241-257-662 0-422 257-663 258-241 708-241t709 242q260 243 260 662 0 421-258 662-257 241-711 241zm-631 268q-406 100-633 378-226 279-226 679 0 559 398 884 399 325 1092 325 697 0 1094-325t397-884q0-400-227-679-226-278-629-378 456-106 710-416 255-309 255-755 0-679-414-1042-414-362-1186-362-771 0-1186 362-414 363-414 1042 0 446 256 755 257 310 713 416zm-231 997q0-362 226-565 227-203 636-203 407 0 636 203 230 203 230 565 0 363-230 566-229 203-636 203-409 0-636-203-226-203-226-566z"/>
   </defs>
   <use width="100%" height="100%" xlink:href="#DejaVuSans-30"/>
   <use x="63.623047" width="100%" height="100%" xlink:href="#DejaVuSans-2e"/>
   <use x="95.410156" width="100%" height="100%" xlink:href="#DejaVuSans-38"/>
  </g>
  <use x="19.7225" y="70.408607" width="100%" height="100%" stroke="#000000" stroke-width=".8" xlink:href="#m5171c42360"/>
  <!-- 1.0 -->
  <g transform="matrix(.08 0 0 -.08 0 73.448)">
   <defs>
    <path id="DejaVuSans-31" transform="scale(.015625)" d="m794 531h1031v3560l-1122-225v575l1116 225h631v-4135h1031v-531h-2687z"/>
   </defs>
   <use width="100%" height="100%" xlink:href="#DejaVuSans-31"/>
   <use x="63.623047" width="100%" height="100%" xlink:href="#DejaVuSans-2e"/>
   <use x="95.410156" width="100%" height="100%" xlink:href="#DejaVuSans-30"/>
  </g>
  <use x="19.7225" y="34.594334" width="100%" height="100%" stroke="#000000" stroke-width=".8" xlink:href="#m5171c42360"/>
  <!-- 1.2 -->
  <g transform="matrix(.08 0 0 -.08 0 37.634)">
   <use width="100%" height="100%" xlink:href="#DejaVuSans-31"/>
   <use x="63.623047" width="100%" height="100%" xlink:href="#DejaVuSans-2e"/>
   <use x="95.410156" width="100%" height="100%" xlink:href="#DejaVuSans-32"/>
  </g>
  <path d="m34.941 249.47 9.1768-0.13666 4.5884-0.24545 4.5884-0.49474 3.0589-0.52946 3.0589-0.73649 3.0589-0.98593 3.0589-1.2715 3.0589-1.5721 3.0589-1.854 3.0589-2.0893 3.0589-2.2848 3.0589-2.499 3.0589-2.8242 3.0589-3.3361 1.5295-1.9223 1.5295-2.1178 1.5295-2.3241 3.0589-5.2685 3.0589-6.0273 3.0589-6.6627 3.0589-7.2252 3.0589-7.8628 3.0589-8.764 1.5295-4.844 1.5295-5.2249 1.5295-5.6545 1.5295-6.1198 3.0589-13.675 3.0589-15.387 9.1768-48.663 3.0589-13.836 1.5295-6.0857 1.5295-5.4981 1.5295-4.9143 1.5295-4.3498 1.5295-3.8137 1.5295-3.3085 1.5295-2.8319 1.5295-2.3794 1.5295-1.9465 1.5295-1.5309 1.5295-1.1345 1.5295-0.76356 1.5295-0.42792 1.5295-0.1394 1.5295 0.09056 3.0589 0.59868 3.0589 0.70027 3.0589 0.38412 1.5295 0.01331 3.0589-0.28979 4.5884-0.66574 1.5295-0.07475 1.5295 0.09507 1.5295 0.32083 1.5295 0.59839 1.5295 0.92202 1.5295 1.2847 1.5295 1.6785 1.5295 2.0952 1.5295 2.5264 1.5295 2.9643 1.5295 3.4016 1.5295 3.8313 1.5295 4.2468 1.5295 4.6408 3.0589 10.336 3.0589 11.436 9.1768 35.526 3.0589 10.457 3.0589 9.3065 3.0589 8.2993 10.706 27.367 4.5884 13.278 4.5884 13.25 3.0589 7.8883 1.5295 3.504 1.5295 3.1846 1.5295 2.8715 1.5295 2.5821 1.5295 2.3288 3.0589 4.0695 3.0589 3.5509 3.0589 3.2475 3.0589 3.0203 3.0589 2.778 3.0589 2.4975 3.0589 2.1972 3.0589 1.8986 3.0589 1.6092 3.0589 1.3284 3.0589 1.0596 3.0589 0.81214 3.0589 0.59397 3.0589 0.40617 4.5884 0.32051 6.1179 0.0875 7.6473 0.12647 7.6473 0.44049 7.6473 0.38532 7.6473 0.14113 3.0589 0.0162v0" clip-path="url(#p097c5a41b7)" fill="none" stroke="#000" stroke-linecap="square" stroke-width="1.5"/>
  <path d="M 19.7225,249.48 V 0" fill="none" stroke="#000" stroke-linecap="square" stroke-width=".8"/>
  <path d="M 354.5225,249.48 V 0" fill="none" stroke="#000" stroke-linecap="square" stroke-width=".8"/>
  <path d="m19.722 249.48h334.8" fill="none" stroke="#000" stroke-linecap="square" stroke-width=".8"/>
  <path d="m19.722 0h334.8" fill="none" stroke="#000" stroke-linecap="square" stroke-width=".8"/>
 </g>
 <defs>
  <clipPath id="p097c5a41b7">
   <rect x="19.722" width="334.8" height="249.48"/>
  </clipPath>
 </defs>
</svg>
