<?xml version="1.0" encoding="UTF-8" standalone="no"?>
<svg
   width="500"
   height="352.29666"
   viewBox="0 0 375.00001 264.2225"
   version="1.1"
   id="svg2542"
   sodipodi:docname="gb73b.svg"
   inkscape:version="1.1.2 (0a00cf5339, 2022-02-04)"
   xmlns:inkscape="http://www.inkscape.org/namespaces/inkscape"
   xmlns:sodipodi="http://sodipodi.sourceforge.net/DTD/sodipodi-0.dtd"
   xmlns:xlink="http://www.w3.org/1999/xlink"
   xmlns="http://www.w3.org/2000/svg"
   xmlns:svg="http://www.w3.org/2000/svg"
   xmlns:rdf="http://www.w3.org/1999/02/22-rdf-syntax-ns#"
   xmlns:cc="http://creativecommons.org/ns#"
   xmlns:dc="http://purl.org/dc/elements/1.1/">
  <sodipodi:namedview
     id="namedview2544"
     pagecolor="#ffffff"
     bordercolor="#666666"
     borderopacity="1.0"
     inkscape:pageshadow="2"
     inkscape:pageopacity="0.0"
     inkscape:pagecheckerboard="0"
     inkscape:document-units="pt"
     showgrid="false"
     showguides="false"
     units="px"
     inkscape:zoom="1.1112793"
     inkscape:cx="189.87126"
     inkscape:cy="175.92337"
     inkscape:window-width="1607"
     inkscape:window-height="991"
     inkscape:window-x="26"
     inkscape:window-y="23"
     inkscape:window-maximized="0"
     inkscape:current-layer="svg2542"
     width="500px" />
  <metadata
     id="metadata2228">
    <rdf:RDF>
      <cc:Work>
        <dc:type
           rdf:resource="http://purl.org/dc/dcmitype/StillImage" />
        <dc:date>2025-08-02T19:46:10.152688</dc:date>
        <dc:format>image/svg+xml</dc:format>
        <dc:creator>
          <cc:Agent>
            <dc:title>Matplotlib v3.9.2, https://matplotlib.org/</dc:title>
          </cc:Agent>
        </dc:creator>
      </cc:Work>
    </rdf:RDF>
  </metadata>
  <defs
     id="defs2232">
    <style
       type="text/css"
       id="style2230">*{stroke-linejoin: round; stroke-linecap: butt}</style>
  </defs>
  <g
     id="figure_1"
     transform="translate(10.03875)">
    <g
       id="patch_1">
      <path
         d="M 0,264.2225 H 354.5225 V 0 H 0 Z"
         style="fill:#ffffff"
         id="path2234" />
    </g>
    <g
       id="axes_1">
      <g
         id="patch_2">
        <path
           d="m 19.7225,249.48 h 334.8 V 0 h -334.8 z"
           style="fill:#ffffff"
           id="path2237" />
      </g>
      <g
         id="patch_3">
        <path
           d="m 63.711112,249.48 h 10.731425 v -4.44112 H 63.711112 Z"
           clip-path="url(#p097c5a41b7)"
           style="fill:#1f77b4;fill-opacity:0.75;stroke:#ffffff;stroke-linejoin:miter"
           id="path2240" />
      </g>
      <g
         id="patch_4">
        <path
           d="M 74.442537,249.48 H 85.173962 V 231.71551 H 74.442537 Z"
           clip-path="url(#p097c5a41b7)"
           style="fill:#1f77b4;fill-opacity:0.75;stroke:#ffffff;stroke-linejoin:miter"
           id="path2243" />
      </g>
      <g
         id="patch_5">
        <path
           d="M 85.173962,249.48 H 95.905387 V 233.93607 H 85.173962 Z"
           clip-path="url(#p097c5a41b7)"
           style="fill:#1f77b4;fill-opacity:0.75;stroke:#ffffff;stroke-linejoin:miter"
           id="path2246" />
      </g>
      <g
         id="patch_6">
        <path
           d="M 95.905387,249.48 H 106.63681 V 200.62766 H 95.905387 Z"
           clip-path="url(#p097c5a41b7)"
           style="fill:#1f77b4;fill-opacity:0.75;stroke:#ffffff;stroke-linejoin:miter"
           id="path2249" />
      </g>
      <g
         id="patch_7">
        <path
           d="m 106.63681,249.48 h 10.73143 v -66.61682 h -10.73143 z"
           clip-path="url(#p097c5a41b7)"
           style="fill:#1f77b4;fill-opacity:0.75;stroke:#ffffff;stroke-linejoin:miter"
           id="path2252" />
      </g>
      <g
         id="patch_8">
        <path
           d="m 117.36824,249.48 h 10.73142 V 136.2314 h -10.73142 z"
           clip-path="url(#p097c5a41b7)"
           style="fill:#1f77b4;fill-opacity:0.75;stroke:#ffffff;stroke-linejoin:miter"
           id="path2255" />
      </g>
      <g
         id="patch_9">
        <path
           d="m 128.09966,249.48 h 10.73143 V 51.850093 h -10.73143 z"
           clip-path="url(#p097c5a41b7)"
           style="fill:#1f77b4;fill-opacity:0.75;stroke:#ffffff;stroke-linejoin:miter"
           id="path2258" />
      </g>
      <g
         id="patch_10">
        <path
           d="m 138.83109,249.48 h 10.73142 V 42.96785 h -10.73142 z"
           clip-path="url(#p097c5a41b7)"
           style="fill:#1f77b4;fill-opacity:0.75;stroke:#ffffff;stroke-linejoin:miter"
           id="path2261" />
      </g>
      <g
         id="patch_11">
        <path
           d="m 149.56251,249.48 h 10.73143 V 11.88 h -10.73143 z"
           clip-path="url(#p097c5a41b7)"
           style="fill:#1f77b4;fill-opacity:0.75;stroke:#ffffff;stroke-linejoin:miter"
           id="path2264" />
      </g>
      <g
         id="patch_12">
        <path
           d="m 160.29394,249.48 h 10.73142 V 40.74729 h -10.73142 z"
           clip-path="url(#p097c5a41b7)"
           style="fill:#1f77b4;fill-opacity:0.75;stroke:#ffffff;stroke-linejoin:miter"
           id="path2267" />
      </g>
      <g
         id="patch_13">
        <path
           d="m 171.02536,249.48 h 10.73143 V 18.541682 h -10.73143 z"
           clip-path="url(#p097c5a41b7)"
           style="fill:#1f77b4;fill-opacity:0.75;stroke:#ffffff;stroke-linejoin:miter"
           id="path2270" />
      </g>
      <g
         id="patch_14">
        <path
           d="m 181.75679,249.48 h 10.73142 V 27.423925 h -10.73142 z"
           clip-path="url(#p097c5a41b7)"
           style="fill:#1f77b4;fill-opacity:0.75;stroke:#ffffff;stroke-linejoin:miter"
           id="path2273" />
      </g>
      <g
         id="patch_15">
        <path
           d="m 192.48821,249.48 h 10.73143 V 42.96785 h -10.73143 z"
           clip-path="url(#p097c5a41b7)"
           style="fill:#1f77b4;fill-opacity:0.75;stroke:#ffffff;stroke-linejoin:miter"
           id="path2276" />
      </g>
      <g
         id="patch_16">
        <path
           d="m 203.21964,249.48 h 10.73142 V 116.24635 h -10.73142 z"
           clip-path="url(#p097c5a41b7)"
           style="fill:#1f77b4;fill-opacity:0.75;stroke:#ffffff;stroke-linejoin:miter"
           id="path2279" />
      </g>
      <g
         id="patch_17">
        <path
           d="m 213.95106,249.48 h 10.73143 V 138.45196 h -10.73143 z"
           clip-path="url(#p097c5a41b7)"
           style="fill:#1f77b4;fill-opacity:0.75;stroke:#ffffff;stroke-linejoin:miter"
           id="path2282" />
      </g>
      <g
         id="patch_18">
        <path
           d="m 224.68249,249.48 h 10.73142 v -99.92523 h -10.73142 z"
           clip-path="url(#p097c5a41b7)"
           style="fill:#1f77b4;fill-opacity:0.75;stroke:#ffffff;stroke-linejoin:miter"
           id="path2285" />
      </g>
      <g
         id="patch_19">
        <path
           d="m 235.41391,249.48 h 10.73143 v -37.74953 h -10.73143 z"
           clip-path="url(#p097c5a41b7)"
           style="fill:#1f77b4;fill-opacity:0.75;stroke:#ffffff;stroke-linejoin:miter"
           id="path2288" />
      </g>
      <g
         id="patch_20">
        <path
           d="m 246.14534,249.48 h 10.73142 v -28.86729 h -10.73142 z"
           clip-path="url(#p097c5a41b7)"
           style="fill:#1f77b4;fill-opacity:0.75;stroke:#ffffff;stroke-linejoin:miter"
           id="path2291" />
      </g>
      <g
         id="patch_21">
        <path
           d="m 256.87676,249.48 h 10.73143 v -19.98505 h -10.73143 z"
           clip-path="url(#p097c5a41b7)"
           style="fill:#1f77b4;fill-opacity:0.75;stroke:#ffffff;stroke-linejoin:miter"
           id="path2294" />
      </g>
      <g
         id="patch_22">
        <path
           d="m 267.60819,249.48 h 10.73142 v -8.88224 h -10.73142 z"
           clip-path="url(#p097c5a41b7)"
           style="fill:#1f77b4;fill-opacity:0.75;stroke:#ffffff;stroke-linejoin:miter"
           id="path2297" />
      </g>
      <g
         id="patch_23">
        <path
           d="m 278.33961,249.48 h 10.73143 v 0 z"
           clip-path="url(#p097c5a41b7)"
           style="fill:#1f77b4;fill-opacity:0.75;stroke:#ffffff;stroke-linejoin:miter"
           id="path2300" />
      </g>
      <g
         id="patch_24">
        <path
           d="m 289.07104,249.48 h 10.73142 v -2.22056 h -10.73142 z"
           clip-path="url(#p097c5a41b7)"
           style="fill:#1f77b4;fill-opacity:0.75;stroke:#ffffff;stroke-linejoin:miter"
           id="path2303" />
      </g>
      <g
         id="patch_25">
        <path
           d="m 299.80246,249.48 h 10.73143 v -2.22056 h -10.73143 z"
           clip-path="url(#p097c5a41b7)"
           style="fill:#1f77b4;fill-opacity:0.75;stroke:#ffffff;stroke-linejoin:miter"
           id="path2306" />
      </g>
      <g
         id="matplotlib.axis_1">
        <g
           id="xtick_1">
          <g
             id="line2d_1">
            <defs
               id="defs2310">
              <path
                 id="m667c20b884"
                 d="M 0,0 V 3.5"
                 style="stroke:#000000;stroke-width:0.8" />
            </defs>
            <g
               id="g2314">
              <use
                 xlink:href="#m667c20b884"
                 x="32.281517"
                 y="249.48"
                 style="stroke:#000000;stroke-width:0.8"
                 id="use2312"
                 width="100%"
                 height="100%" />
            </g>
          </g>
          <g
             id="text_1">
            <!-- 2.0 -->
            <g
               transform="matrix(0.08,0,0,-0.08,25.920268,262.55875)"
               id="g2328">
              <defs
                 id="defs2320">
                <path
                   id="DejaVuSans-32"
                   d="M 1228,531 H 3431 V 0 H 469 v 531 q 359,372 979,998 621,627 780,809 303,340 423,576 121,236 121,464 0,372 -261,606 -261,235 -680,235 -297,0 -627,-103 -329,-103 -704,-313 v 638 q 381,153 712,231 332,78 607,78 725,0 1156,-363 431,-362 431,-968 0,-288 -108,-546 -107,-257 -392,-607 -78,-91 -497,-524 Q 1991,1309 1228,531 Z"
                   transform="scale(0.015625)" />
                <path
                   id="DejaVuSans-2e"
                   d="m 684,794 h 660 V 0 H 684 Z"
                   transform="scale(0.015625)" />
                <path
                   id="DejaVuSans-30"
                   d="m 2034,4250 q -487,0 -733,-480 -245,-479 -245,-1442 0,-959 245,-1439 246,-480 733,-480 491,0 736,480 246,480 246,1439 0,963 -246,1442 -245,480 -736,480 z m 0,500 q 785,0 1199,-621 414,-620 414,-1801 0,-1178 -414,-1799 -414,-620 -1199,-620 -784,0 -1198,620 -414,621 -414,1799 0,1181 414,1801 414,621 1198,621 z"
                   transform="scale(0.015625)" />
              </defs>
              <use
                 xlink:href="#DejaVuSans-32"
                 id="use2322"
                 x="0"
                 y="0"
                 width="100%"
                 height="100%" />
              <use
                 xlink:href="#DejaVuSans-2e"
                 x="63.623047"
                 id="use2324"
                 y="0"
                 width="100%"
                 height="100%" />
              <use
                 xlink:href="#DejaVuSans-30"
                 x="95.410156"
                 id="use2326"
                 y="0"
                 width="100%"
                 height="100%" />
            </g>
          </g>
        </g>
        <g
           id="xtick_2">
          <g
             id="line2d_2">
            <g
               id="g2334">
              <use
                 xlink:href="#m667c20b884"
                 x="98.818619"
                 y="249.48"
                 style="stroke:#000000;stroke-width:0.8"
                 id="use2332"
                 width="100%"
                 height="100%" />
            </g>
          </g>
          <g
             id="text_2">
            <!-- 2.5 -->
            <g
               transform="matrix(0.08,0,0,-0.08,92.457366,262.55875)"
               id="g2346">
              <defs
                 id="defs2338">
                <path
                   id="DejaVuSans-35"
                   d="M 691,4666 H 3169 V 4134 H 1269 V 2991 q 137,47 274,70 138,23 276,23 781,0 1237,-428 457,-428 457,-1159 Q 3513,744 3044,326 2575,-91 1722,-91 1428,-91 1123,-41 819,9 494,109 v 635 q 281,-153 581,-228 300,-75 634,-75 541,0 856,284 316,284 316,772 0,487 -316,771 -315,285 -856,285 -253,0 -505,-56 -251,-56 -513,-175 z"
                   transform="scale(0.015625)" />
              </defs>
              <use
                 xlink:href="#DejaVuSans-32"
                 id="use2340"
                 x="0"
                 y="0"
                 width="100%"
                 height="100%" />
              <use
                 xlink:href="#DejaVuSans-2e"
                 x="63.623047"
                 id="use2342"
                 y="0"
                 width="100%"
                 height="100%" />
              <use
                 xlink:href="#DejaVuSans-35"
                 x="95.410156"
                 id="use2344"
                 y="0"
                 width="100%"
                 height="100%" />
            </g>
          </g>
        </g>
        <g
           id="xtick_3">
          <g
             id="line2d_3">
            <g
               id="g2352">
              <use
                 xlink:href="#m667c20b884"
                 x="165.35571"
                 y="249.48"
                 style="stroke:#000000;stroke-width:0.8"
                 id="use2350"
                 width="100%"
                 height="100%" />
            </g>
          </g>
          <g
             id="text_3">
            <!-- 3.0 -->
            <g
               transform="matrix(0.08,0,0,-0.08,158.99446,262.55875)"
               id="g2364">
              <defs
                 id="defs2356">
                <path
                   id="DejaVuSans-33"
                   d="m 2597,2516 q 453,-97 707,-404 255,-306 255,-756 0,-690 -475,-1069 -475,-378 -1350,-378 -293,0 -604,58 -311,58 -642,174 v 609 q 262,-153 574,-231 313,-78 654,-78 593,0 904,234 311,234 311,681 0,413 -289,645 -289,233 -804,233 h -544 v 519 h 569 q 465,0 712,186 247,186 247,536 0,359 -255,551 -254,193 -729,193 -260,0 -557,-57 -297,-56 -653,-174 v 562 q 360,100 674,150 314,50 592,50 719,0 1137,-327 419,-326 419,-882 0,-388 -222,-655 -222,-267 -631,-370 z"
                   transform="scale(0.015625)" />
              </defs>
              <use
                 xlink:href="#DejaVuSans-33"
                 id="use2358"
                 x="0"
                 y="0"
                 width="100%"
                 height="100%" />
              <use
                 xlink:href="#DejaVuSans-2e"
                 x="63.623047"
                 id="use2360"
                 y="0"
                 width="100%"
                 height="100%" />
              <use
                 xlink:href="#DejaVuSans-30"
                 x="95.410156"
                 id="use2362"
                 y="0"
                 width="100%"
                 height="100%" />
            </g>
          </g>
        </g>
        <g
           id="xtick_4">
          <g
             id="line2d_4">
            <g
               id="g2370">
              <use
                 xlink:href="#m667c20b884"
                 x="231.89281"
                 y="249.48"
                 style="stroke:#000000;stroke-width:0.8"
                 id="use2368"
                 width="100%"
                 height="100%" />
            </g>
          </g>
          <g
             id="text_4">
            <!-- 3.5 -->
            <g
               transform="matrix(0.08,0,0,-0.08,225.53156,262.55875)"
               id="g2379">
              <use
                 xlink:href="#DejaVuSans-33"
                 id="use2373"
                 x="0"
                 y="0"
                 width="100%"
                 height="100%" />
              <use
                 xlink:href="#DejaVuSans-2e"
                 x="63.623047"
                 id="use2375"
                 y="0"
                 width="100%"
                 height="100%" />
              <use
                 xlink:href="#DejaVuSans-35"
                 x="95.410156"
                 id="use2377"
                 y="0"
                 width="100%"
                 height="100%" />
            </g>
          </g>
        </g>
        <g
           id="xtick_5">
          <g
             id="line2d_5">
            <g
               id="g2385">
              <use
                 xlink:href="#m667c20b884"
                 x="298.4299"
                 y="249.48"
                 style="stroke:#000000;stroke-width:0.8"
                 id="use2383"
                 width="100%"
                 height="100%" />
            </g>
          </g>
          <g
             id="text_5">
            <!-- 4.0 -->
            <g
               transform="matrix(0.08,0,0,-0.08,292.06866,262.55875)"
               id="g2397">
              <defs
                 id="defs2389">
                <path
                   id="DejaVuSans-34"
                   d="M 2419,4116 825,1625 h 1594 z m -166,550 h 794 V 1625 h 666 V 1100 H 3047 V 0 H 2419 V 1100 H 313 v 609 z"
                   transform="scale(0.015625)" />
              </defs>
              <use
                 xlink:href="#DejaVuSans-34"
                 id="use2391"
                 x="0"
                 y="0"
                 width="100%"
                 height="100%" />
              <use
                 xlink:href="#DejaVuSans-2e"
                 x="63.623047"
                 id="use2393"
                 y="0"
                 width="100%"
                 height="100%" />
              <use
                 xlink:href="#DejaVuSans-30"
                 x="95.410156"
                 id="use2395"
                 y="0"
                 width="100%"
                 height="100%" />
            </g>
          </g>
        </g>
      </g>
      <g
         id="matplotlib.axis_2">
        <g
           id="ytick_1">
          <g
             id="line2d_6">
            <defs
               id="defs2403">
              <path
                 id="m5171c42360"
                 d="M 0,0 H -3.5"
                 style="stroke:#000000;stroke-width:0.8" />
            </defs>
            <g
               id="g2407">
              <use
                 xlink:href="#m5171c42360"
                 x="19.7225"
                 y="249.48"
                 style="stroke:#000000;stroke-width:0.8"
                 id="use2405"
                 width="100%"
                 height="100%" />
            </g>
          </g>
          <g
             id="text_6">
            <!-- 0.0 -->
            <g
               transform="matrix(0.08,0,0,-0.08,0,252.51937)"
               id="g2416">
              <use
                 xlink:href="#DejaVuSans-30"
                 id="use2410"
                 x="0"
                 y="0"
                 width="100%"
                 height="100%" />
              <use
                 xlink:href="#DejaVuSans-2e"
                 x="63.623047"
                 id="use2412"
                 y="0"
                 width="100%"
                 height="100%" />
              <use
                 xlink:href="#DejaVuSans-30"
                 x="95.410156"
                 id="use2414"
                 y="0"
                 width="100%"
                 height="100%" />
            </g>
          </g>
        </g>
        <g
           id="ytick_2">
          <g
             id="line2d_7">
            <g
               id="g2422">
              <use
                 xlink:href="#m5171c42360"
                 x="19.7225"
                 y="213.66573"
                 style="stroke:#000000;stroke-width:0.8"
                 id="use2420"
                 width="100%"
                 height="100%" />
            </g>
          </g>
          <g
             id="text_7">
            <!-- 0.2 -->
            <g
               transform="matrix(0.08,0,0,-0.08,0,216.7051)"
               id="g2431">
              <use
                 xlink:href="#DejaVuSans-30"
                 id="use2425"
                 x="0"
                 y="0"
                 width="100%"
                 height="100%" />
              <use
                 xlink:href="#DejaVuSans-2e"
                 x="63.623047"
                 id="use2427"
                 y="0"
                 width="100%"
                 height="100%" />
              <use
                 xlink:href="#DejaVuSans-32"
                 x="95.410156"
                 id="use2429"
                 y="0"
                 width="100%"
                 height="100%" />
            </g>
          </g>
        </g>
        <g
           id="ytick_3">
          <g
             id="line2d_8">
            <g
               id="g2437">
              <use
                 xlink:href="#m5171c42360"
                 x="19.7225"
                 y="177.85144"
                 style="stroke:#000000;stroke-width:0.8"
                 id="use2435"
                 width="100%"
                 height="100%" />
            </g>
          </g>
          <g
             id="text_8">
            <!-- 0.4 -->
            <g
               transform="matrix(0.08,0,0,-0.08,0,180.89082)"
               id="g2446">
              <use
                 xlink:href="#DejaVuSans-30"
                 id="use2440"
                 x="0"
                 y="0"
                 width="100%"
                 height="100%" />
              <use
                 xlink:href="#DejaVuSans-2e"
                 x="63.623047"
                 id="use2442"
                 y="0"
                 width="100%"
                 height="100%" />
              <use
                 xlink:href="#DejaVuSans-34"
                 x="95.410156"
                 id="use2444"
                 y="0"
                 width="100%"
                 height="100%" />
            </g>
          </g>
        </g>
        <g
           id="ytick_4">
          <g
             id="line2d_9">
            <g
               id="g2452">
              <use
                 xlink:href="#m5171c42360"
                 x="19.7225"
                 y="142.03717"
                 style="stroke:#000000;stroke-width:0.8"
                 id="use2450"
                 width="100%"
                 height="100%" />
            </g>
          </g>
          <g
             id="text_9">
            <!-- 0.6 -->
            <g
               transform="matrix(0.08,0,0,-0.08,0,145.07654)"
               id="g2464">
              <defs
                 id="defs2456">
                <path
                   id="DejaVuSans-36"
                   d="m 2113,2584 q -425,0 -674,-291 -248,-290 -248,-796 0,-503 248,-796 249,-292 674,-292 425,0 673,292 248,293 248,796 0,506 -248,796 -248,291 -673,291 z m 1253,1979 v -575 q -238,112 -480,171 -242,60 -480,60 -625,0 -955,-422 -329,-422 -376,-1275 184,272 462,417 279,145 613,145 703,0 1111,-427 408,-426 408,-1160 0,-719 -425,-1154 -425,-434 -1131,-434 -810,0 -1238,620 -428,621 -428,1799 0,1106 525,1764 525,658 1409,658 238,0 480,-47 242,-47 505,-140 z"
                   transform="scale(0.015625)" />
              </defs>
              <use
                 xlink:href="#DejaVuSans-30"
                 id="use2458"
                 x="0"
                 y="0"
                 width="100%"
                 height="100%" />
              <use
                 xlink:href="#DejaVuSans-2e"
                 x="63.623047"
                 id="use2460"
                 y="0"
                 width="100%"
                 height="100%" />
              <use
                 xlink:href="#DejaVuSans-36"
                 x="95.410156"
                 id="use2462"
                 y="0"
                 width="100%"
                 height="100%" />
            </g>
          </g>
        </g>
        <g
           id="ytick_5">
          <g
             id="line2d_10">
            <g
               id="g2470">
              <use
                 xlink:href="#m5171c42360"
                 x="19.7225"
                 y="106.22289"
                 style="stroke:#000000;stroke-width:0.8"
                 id="use2468"
                 width="100%"
                 height="100%" />
            </g>
          </g>
          <g
             id="text_10">
            <!-- 0.8 -->
            <g
               transform="matrix(0.08,0,0,-0.08,0,109.26226)"
               id="g2482">
              <defs
                 id="defs2474">
                <path
                   id="DejaVuSans-38"
                   d="m 2034,2216 q -450,0 -708,-241 -257,-241 -257,-662 0,-422 257,-663 258,-241 708,-241 450,0 709,242 260,243 260,662 0,421 -258,662 -257,241 -711,241 z m -631,268 q -406,100 -633,378 -226,279 -226,679 0,559 398,884 399,325 1092,325 697,0 1094,-325 397,-325 397,-884 0,-400 -227,-679 -226,-278 -629,-378 456,-106 710,-416 255,-309 255,-755 Q 3634,634 3220,271 2806,-91 2034,-91 1263,-91 848,271 434,634 434,1313 q 0,446 256,755 257,310 713,416 z m -231,997 q 0,-362 226,-565 227,-203 636,-203 407,0 636,203 230,203 230,565 0,363 -230,566 -229,203 -636,203 -409,0 -636,-203 -226,-203 -226,-566 z"
                   transform="scale(0.015625)" />
              </defs>
              <use
                 xlink:href="#DejaVuSans-30"
                 id="use2476"
                 x="0"
                 y="0"
                 width="100%"
                 height="100%" />
              <use
                 xlink:href="#DejaVuSans-2e"
                 x="63.623047"
                 id="use2478"
                 y="0"
                 width="100%"
                 height="100%" />
              <use
                 xlink:href="#DejaVuSans-38"
                 x="95.410156"
                 id="use2480"
                 y="0"
                 width="100%"
                 height="100%" />
            </g>
          </g>
        </g>
        <g
           id="ytick_6">
          <g
             id="line2d_11">
            <g
               id="g2488">
              <use
                 xlink:href="#m5171c42360"
                 x="19.7225"
                 y="70.408607"
                 style="stroke:#000000;stroke-width:0.8"
                 id="use2486"
                 width="100%"
                 height="100%" />
            </g>
          </g>
          <g
             id="text_11">
            <!-- 1.0 -->
            <g
               transform="matrix(0.08,0,0,-0.08,0,73.447985)"
               id="g2500">
              <defs
                 id="defs2492">
                <path
                   id="DejaVuSans-31"
                   d="M 794,531 H 1825 V 4091 L 703,3866 v 575 l 1116,225 h 631 V 531 H 3481 V 0 H 794 Z"
                   transform="scale(0.015625)" />
              </defs>
              <use
                 xlink:href="#DejaVuSans-31"
                 id="use2494"
                 x="0"
                 y="0"
                 width="100%"
                 height="100%" />
              <use
                 xlink:href="#DejaVuSans-2e"
                 x="63.623047"
                 id="use2496"
                 y="0"
                 width="100%"
                 height="100%" />
              <use
                 xlink:href="#DejaVuSans-30"
                 x="95.410156"
                 id="use2498"
                 y="0"
                 width="100%"
                 height="100%" />
            </g>
          </g>
        </g>
        <g
           id="ytick_7">
          <g
             id="line2d_12">
            <g
               id="g2506">
              <use
                 xlink:href="#m5171c42360"
                 x="19.7225"
                 y="34.594334"
                 style="stroke:#000000;stroke-width:0.8"
                 id="use2504"
                 width="100%"
                 height="100%" />
            </g>
          </g>
          <g
             id="text_12">
            <!-- 1.2 -->
            <g
               transform="matrix(0.08,0,0,-0.08,0,37.633707)"
               id="g2515">
              <use
                 xlink:href="#DejaVuSans-31"
                 id="use2509"
                 x="0"
                 y="0"
                 width="100%"
                 height="100%" />
              <use
                 xlink:href="#DejaVuSans-2e"
                 x="63.623047"
                 id="use2511"
                 y="0"
                 width="100%"
                 height="100%" />
              <use
                 xlink:href="#DejaVuSans-32"
                 x="95.410156"
                 id="use2513"
                 y="0"
                 width="100%"
                 height="100%" />
            </g>
          </g>
        </g>
      </g>
      <g
         id="line2d_13">
        <path
           d="m 34.940682,249.46812 9.176793,-0.13666 4.588396,-0.24545 4.588397,-0.49474 3.058931,-0.52946 3.058931,-0.73649 3.058931,-0.98593 3.058931,-1.27147 3.058931,-1.57206 3.058931,-1.85396 3.058931,-2.08928 3.058931,-2.28485 3.058931,-2.499 3.058931,-2.8242 3.058931,-3.33609 1.529466,-1.92234 1.529465,-2.11785 1.529466,-2.32414 3.058931,-5.26847 3.058931,-6.02732 3.058932,-6.66272 3.05893,-7.22519 3.05893,-7.86277 3.05893,-8.76403 1.52947,-4.844 1.52946,-5.22491 1.52947,-5.65448 1.52946,-6.11978 3.05893,-13.67514 3.05894,-15.38706 9.17679,-48.663467 3.05893,-13.836311 1.52946,-6.085725 1.52947,-5.498125 1.52947,-4.914262 1.52946,-4.349819 1.52947,-3.813694 1.52946,-3.308456 1.52947,-2.831917 1.52946,-2.379428 1.52947,-1.946455 1.52946,-1.530874 1.52947,-1.134503 1.52947,-0.763558 1.52946,-0.427916 1.52947,-0.139401 1.52946,0.09056 3.05893,0.598682 3.05893,0.700271 3.05894,0.384115 1.52946,0.01331 3.05893,-0.289792 4.5884,-0.665736 1.52946,-0.07475 1.52947,0.09507 1.52946,0.32083 1.52947,0.598393 1.52947,0.92202 1.52946,1.284691 1.52947,1.678515 1.52946,2.095175 1.52947,2.526395 1.52946,2.964298 1.52947,3.401566 1.52946,3.831327 1.52947,4.246789 1.52947,4.640762 3.05893,10.336258 3.05893,11.435858 9.17679,35.526034 3.05893,10.45737 3.05893,9.30652 3.05893,8.29933 10.70626,27.36722 4.5884,13.27786 4.5884,13.24981 3.05893,7.88828 1.52946,3.50398 1.52947,3.18457 1.52946,2.87148 1.52947,2.5821 1.52946,2.32884 3.05893,4.06947 3.05894,3.55094 3.05893,3.24749 3.05893,3.02032 3.05893,2.77797 3.05893,2.49746 3.05893,2.19715 3.05893,1.8986 3.05893,1.60921 3.05893,1.32842 3.05894,1.05961 3.05893,0.81214 3.05893,0.59397 3.05893,0.40617 4.58839,0.32051 6.11787,0.0875 7.64732,0.12647 7.64733,0.44049 7.64733,0.38532 7.64733,0.14113 3.05893,0.0162 v 0"
           clip-path="url(#p097c5a41b7)"
           style="fill:none;stroke:#000000;stroke-width:1.5;stroke-linecap:square"
           id="path2520" />
      </g>
      <g
         id="patch_26">
        <path
           d="M 19.7225,249.48 V 0"
           style="fill:none;stroke:#000000;stroke-width:0.8;stroke-linecap:square;stroke-linejoin:miter"
           id="path2523" />
      </g>
      <g
         id="patch_27">
        <path
           d="M 354.5225,249.48 V 0"
           style="fill:none;stroke:#000000;stroke-width:0.8;stroke-linecap:square;stroke-linejoin:miter"
           id="path2526" />
      </g>
      <g
         id="patch_28">
        <path
           d="m 19.7225,249.48 h 334.8"
           style="fill:none;stroke:#000000;stroke-width:0.8;stroke-linecap:square;stroke-linejoin:miter"
           id="path2529" />
      </g>
      <g
         id="patch_29">
        <path
           d="m 19.7225,0 h 334.8"
           style="fill:none;stroke:#000000;stroke-width:0.8;stroke-linecap:square;stroke-linejoin:miter"
           id="path2532" />
      </g>
    </g>
  </g>
  <defs
     id="defs2540">
    <clipPath
       id="p097c5a41b7">
      <rect
         x="19.7225"
         y="0"
         width="334.79999"
         height="249.48"
         id="rect2537" />
    </clipPath>
  </defs>
</svg>
